HIERARCHY
ROOT hip
{
  OFFSET 0 0 0
  CHANNELS 6 Xposition Yposition Zposition Zrotation Yrotation Xrotation
  JOINT abdomen
  {
    OFFSET 0 20.6881 -0.73152
    CHANNELS 3 Zrotation Xrotation Yrotation
    JOINT chest
    {
      OFFSET 0 11.7043 -0.48768
      CHANNELS 3 Zrotation Xrotation Yrotation
      JOINT neck
      {
        OFFSET 0 22.1894 -2.19456
        CHANNELS 3 Zrotation Xrotation Yrotation
        JOINT head
        {
          OFFSET -0.24384 7.07133 1.2192
          CHANNELS 3 Zrotation Xrotation Yrotation
          JOINT leftEye
          {
            OFFSET 4.14528 8.04674 8.04672
            CHANNELS 3 Zrotation Xrotation Yrotation
            End Site
            {
              OFFSET 1 0 0
            }
          }
          JOINT rightEye
          {
            OFFSET -3.6576 8.04674 8.04672
            CHANNELS 3 Zrotation Xrotation Yrotation
            End Site
            {
              OFFSET 1 0 0
            }
          }
        }
      }
      JOINT rCollar
      {
        OFFSET -2.68224 19.2634 -4.8768
        CHANNELS 3 Zrotation Xrotation Yrotation
        JOINT rShldr
        {
          OFFSET -8.77824 -1.95073 1.46304
          CHANNELS 3 Zrotation Xrotation Yrotation
          JOINT rForeArm
          {
            OFFSET -28.1742 -1.7115 0.48768
            CHANNELS 3 Zrotation Xrotation Yrotation
            JOINT rHand
            {
              OFFSET -22.5879 0.773209 7.07136
              CHANNELS 3 Zrotation Xrotation Yrotation
              JOINT rThumb1
              {
                OFFSET -1.2192 -0.487915 3.41376
                CHANNELS 3 Zrotation Xrotation Yrotation
                JOINT rThumb2
                {
                  OFFSET -3.37035 -0.52449 3.41376
                  CHANNELS 3 Zrotation Xrotation Yrotation
                  End Site
                  {
                    OFFSET -1.78271 -1.18214 1.43049
                  }
                }
              }
              JOINT rIndex1
              {
                OFFSET -7.75947 0.938293 5.60832
                CHANNELS 3 Zrotation Xrotation Yrotation
                JOINT rIndex2
                {
                  OFFSET -2.54057 -0.884171 1.56538
                  CHANNELS 3 Zrotation Xrotation Yrotation
                  End Site
                  {
                    OFFSET -1.62519 -0.234802 1.16502
                  }
                }
              }
              JOINT rMid1
              {
                OFFSET -8.24714 1.18213 3.41376
                CHANNELS 3 Zrotation Xrotation Yrotation
                JOINT rMid2
                {
                  OFFSET -3.10165 -0.590103 1.0647
                  CHANNELS 3 Zrotation Xrotation Yrotation
                  End Site
                  {
                    OFFSET -2.48547 -0.328903 0.83742
                  }
                }
              }
              JOINT rRing1
              {
                OFFSET -8.82822 0.546677 1.51678
                CHANNELS 3 Zrotation Xrotation Yrotation
                JOINT rRing2
                {
                  OFFSET -2.60934 -0.819778 -0.0198488
                  CHANNELS 3 Zrotation Xrotation Yrotation
                  End Site
                  {
                    OFFSET -2.33842 -0.294052 0.168128
                  }
                }
              }
              JOINT rPinky1
              {
                OFFSET -8.27202 -0.0477905 -0.4584
                CHANNELS 3 Zrotation Xrotation Yrotation
                JOINT rPinky2
                {
                  OFFSET -1.82734 -0.647385 -0.700984
                  CHANNELS 3 Zrotation Xrotation Yrotation
                  End Site
                  {
                    OFFSET -1.69225 -0.51767 -0.607171
                  }
                }
              }
            }
          }
        }
      }
      JOINT lCollar
      {
        OFFSET 2.68224 19.2634 -4.8768
        CHANNELS 3 Zrotation Xrotation Yrotation
        JOINT lShldr
        {
          OFFSET 8.77824 -1.95073 1.46304
          CHANNELS 3 Zrotation Xrotation Yrotation
          JOINT lForeArm
          {
            OFFSET 28.1742 -1.7115 0.48768
            CHANNELS 3 Zrotation Xrotation Yrotation
            JOINT lHand
            {
              OFFSET 22.5879 0.773209 7.07136
              CHANNELS 3 Zrotation Xrotation Yrotation
              JOINT lThumb1
              {
                OFFSET 1.2192 -0.487915 3.41376
                CHANNELS 3 Zrotation Xrotation Yrotation
                JOINT lThumb2
                {
                  OFFSET 3.37035 -0.52449 3.41376
                  CHANNELS 3 Zrotation Xrotation Yrotation
                  End Site
                  {
                    OFFSET 1.78271 -1.18214 1.43049
                  }
                }
              }
              JOINT lIndex1
              {
                OFFSET 7.75947 0.938293 5.60832
                CHANNELS 3 Zrotation Xrotation Yrotation
                JOINT lIndex2
                {
                  OFFSET 2.54057 -0.884171 1.56538
                  CHANNELS 3 Zrotation Xrotation Yrotation
                  End Site
                  {
                    OFFSET 1.62519 -0.234802 1.16502
                  }
                }
              }
              JOINT lMid1
              {
                OFFSET 8.24714 1.18213 3.41376
                CHANNELS 3 Zrotation Xrotation Yrotation
                JOINT lMid2
                {
                  OFFSET 3.10165 -0.590103 1.0647
                  CHANNELS 3 Zrotation Xrotation Yrotation
                  End Site
                  {
                    OFFSET 2.48547 -0.328903 0.83742
                  }
                }
              }
              JOINT lRing1
              {
                OFFSET 8.82822 0.546677 1.51678
                CHANNELS 3 Zrotation Xrotation Yrotation
                JOINT lRing2
                {
                  OFFSET 2.60934 -0.819778 -0.0198488
                  CHANNELS 3 Zrotation Xrotation Yrotation
                  End Site
                  {
                    OFFSET 2.33842 -0.294052 0.168128
                  }
                }
              }
              JOINT lPinky1
              {
                OFFSET 8.27202 -0.0477905 -0.4584
                CHANNELS 3 Zrotation Xrotation Yrotation
                JOINT lPinky2
                {
                  OFFSET 1.82734 -0.647385 -0.700984
                  CHANNELS 3 Zrotation Xrotation Yrotation
                  End Site
                  {
                    OFFSET 1.69225 -0.51767 -0.607171
                  }
                }
              }
            }
          }
        }
      }
    }
  }
  JOINT rButtock
  {
    OFFSET -8.77824 4.35084 1.2192
    CHANNELS 3 Zrotation Xrotation Yrotation
    JOINT rThigh
    {
      OFFSET 0 -1.70687 -2.19456
      CHANNELS 3 Zrotation Xrotation Yrotation
      JOINT rShin
      {
        OFFSET 0 -36.8199 0.73152
        CHANNELS 3 Zrotation Xrotation Yrotation
        JOINT rFoot
        {
          OFFSET 0.73152 -45.1104 -5.12064
          CHANNELS 3 Zrotation Xrotation Yrotation
          End Site
          {
            OFFSET -1.1221 -3.69964 12.103
          }
        }
      }
    }
  }
  JOINT lButtock
  {
    OFFSET 8.77824 4.35084 1.2192
    CHANNELS 3 Zrotation Xrotation Yrotation
    JOINT lThigh
    {
      OFFSET 0 -1.70687 -2.19456
      CHANNELS 3 Zrotation Xrotation Yrotation
      JOINT lShin
      {
        OFFSET 0 -36.8199 0.73152
        CHANNELS 3 Zrotation Xrotation Yrotation
        JOINT lFoot
        {
          OFFSET -0.73152 -45.1104 -5.12064
          CHANNELS 3 Zrotation Xrotation Yrotation
          End Site
          {
            OFFSET 1.1221 -3.69964 12.103
          }
        }
      }
    }
  }
}
MOTION
Frames:	8
Frame Time:	0.00833333
5.51834 82.4855 51.9855 0.0 0.0 0.0 -4.35895 0.00629239 -0.117455 -1.20158 0.0324761 -0.207681 1.45409e-13 7.95139e-16 1.59028e-15 4.37249e-13 3.18055e-15 4.4711e-15 -0.0 0.0 0.0 -0.0 0.0 0.0 7.29571e-14 3.56415e-16 8.94531e-16 1.53372e-12 7.97623e-15 2.26615e-14 2.63309e-11 -7.67786e-12 9.85972e-14 3.02236e-10 9.28836e-12 3.78168e-12 7.12761e-10 3.48562e-12 8.3744e-12 1.23091e-09 6.01443e-12 1.44318e-11 7.12768e-10 3.48708e-12 8.36804e-12 7.73091 5.47488 0.417314 7.1276e-10 3.48599e-12 8.3744e-12 2.90554 0.965183 0.102902 7.12772e-10 3.48589e-12 8.37599e-12 10.2786 0.731801 0.0259123 7.12757e-10 3.48629e-12 8.38076e-12 2.22167 -0.733487 -0.20892 7.27568e-14 3.63209e-16 4.96962e-16 1.53165e-12 7.47306e-15 2.127e-14 2.6469e-11 8.13944e-12 6.67917e-14 3.02106e-10 -6.55296e-12 3.82939e-12 7.12777e-10 3.43797e-12 8.37758e-12 1.23094e-09 5.93173e-12 1.44381e-11 7.12769e-10 3.44136e-12 8.37758e-12 -7.73091 5.47488 -0.417314 7.12777e-10 3.43838e-12 8.37122e-12 -2.90554 0.965183 -0.102902 7.1277e-10 3.43848e-12 8.3752e-12 -10.2786 0.731801 -0.0259123 7.1278e-10 3.43579e-12 8.36168e-12 -2.22167 -0.733487 0.20892 -2.03217e-16 0.0 -3.88251e-19 -2.88813 -1.94435 0.0304151 -0.00797286 -2.07874 -0.0650949 -0.422321 4.00217 0.127125 2.03217e-16 0.0 3.88251e-19 -3.72545 -11.2507 0.483805 -0.0143129 14.7725 -0.388793 0.544904 -3.54242 0.0125038
3.33124 82.1265 49.8218 -8.9666 -0.6118 9.4031 -1.85254 -2.63895 0.541024 -2.34978 -2.42691 -0.182684 -1.21387 2.9602 -1.61782 3.8856 -1.62751 -2.94019 -0.0 0.0 0.0 -0.0 0.0 0.0 -1.00429e-15 6.59912e-14 -1.28449e-14 23.7974 -2.2928 -3.42626 -3.91516 -1.72229 6.1753 0.242563 10.9633 1.44091 1.01167e-09 -5.05942e-10 4.55447e-10 1.7604e-09 -8.77381e-10 7.69915e-10 1.01168e-09 -5.05939e-10 4.55435e-10 7.73091 5.47488 0.417314 1.01167e-09 -5.05942e-10 4.55448e-10 2.90554 0.965183 0.102902 1.01168e-09 -5.05942e-10 4.55447e-10 10.2786 0.731801 0.0259123 1.01167e-09 -5.05941e-10 4.55452e-10 2.22167 -0.733487 -0.20892 -1.16772e-15 6.60029e-14 -1.32572e-14 -22.8928 -3.01569 4.18114 4.15227 -1.8734 -6.49977 -0.0822759 6.37035 -0.875437 9.44073e-10 2.56294e-10 5.65616e-10 1.64016e-09 4.4848e-10 9.67749e-10 9.44067e-10 2.56296e-10 5.65617e-10 -7.73091 5.47488 -0.417314 9.44074e-10 2.56294e-10 5.65613e-10 -2.90554 0.965183 -0.102902 9.44066e-10 2.56294e-10 5.65615e-10 -10.2786 0.731801 -0.0259123 9.44077e-10 2.56294e-10 5.65604e-10 -2.22167 -0.733487 0.20892 -2.03217e-16 0.0 -3.88251e-19 -1.55699 -3.33432 6.70508 0.00294119 -1.67916 0.0306816 -0.821182 1.69581 -5.64436 2.03217e-16 0.0 3.88251e-19 -2.80651 -10.9383 -11.7919 -0.00539751 14.2331 -0.251121 1.56365 -9.60739 14.1829
3.34952 82.1227 49.8207 -8.8686 -0.663 9.4086 0.888062 -5.40421 1.25323 -3.56982 -5.03851 -0.154703 -2.31088 6.08254 -3.3437 7.80448 -3.33438 -6.05923 -0.0 0.0 0.0 -0.0 0.0 0.0 -8.10674e-14 1.33832e-13 -2.86871e-14 48.661 -4.68499 -7.07081 -7.66095 -3.48169 12.7341 -0.145603 22.5409 3.15232 1.32065e-09 -1.05763e-09 9.71467e-10 2.3094e-09 -1.83488e-09 1.64361e-09 1.32066e-09 -1.05763e-09 9.71449e-10 7.73091 5.47488 0.417314 1.32065e-09 -1.05763e-09 9.71469e-10 2.90554 0.965183 0.102902 1.32066e-09 -1.05763e-09 9.71464e-10 10.2786 0.731801 0.0259123 1.32065e-09 -1.05763e-09 9.71469e-10 2.22167 -0.733487 -0.20892 -8.11898e-14 1.33849e-13 -2.91157e-14 -46.6142 -6.14773 8.6356 8.08464 -3.77475 -13.3959 0.0476043 13.1078 -1.83874 1.20826e-09 5.29795e-10 1.13331e-09 2.10636e-09 9.26768e-10 1.93817e-09 1.20826e-09 5.29795e-10 1.13331e-09 -7.73091 5.47488 -0.417314 1.20826e-09 5.29794e-10 1.13331e-09 -2.90554 0.965183 -0.102902 1.20825e-09 5.29795e-10 1.13331e-09 -10.2786 0.731801 -0.0259123 1.20827e-09 5.29796e-10 1.1333e-09 -2.22167 -0.733487 0.20892 -2.03217e-16 0.0 -3.88251e-19 0.219016 -4.69917 13.7838 0.0130954 -1.25478 0.131836 -1.74286 -0.703331 -11.7317 2.03217e-16 0.0 3.88251e-19 -1.66728 -10.0674 -24.7125 0.00680116 13.6593 -0.106393 5.84557 -14.5289 29.7897
3.36606 82.1209 49.8214 -8.7882 -0.6837 9.4049 3.34409 -7.9256 1.87417 -4.63977 -7.34569 -0.133294 -3.13563 8.8521 -4.90554 11.1564 -4.83104 -8.84871 -0.0 0.0 0.0 -0.0 0.0 0.0 -1.48927e-13 1.97261e-13 -4.03238e-14 70.5697 -6.77977 -10.3437 -10.6498 -4.92725 18.5887 -1.1909 32.7985 5.05059 1.6095e-09 -1.5248e-09 1.34959e-09 2.81939e-09 -2.64417e-09 2.28088e-09 1.60951e-09 -1.52479e-09 1.34957e-09 7.73091 5.47488 0.417314 1.60949e-09 -1.5248e-09 1.3496e-09 2.90554 0.965183 0.102902 1.60951e-09 -1.5248e-09 1.34959e-09 10.2786 0.731801 0.0259123 1.6095e-09 -1.5248e-09 1.34959e-09 2.22167 -0.733487 -0.20892 -1.49017e-13 1.97282e-13 -4.07656e-14 -67.3563 -8.85348 12.6796 11.2044 -5.33149 -19.577 0.365863 19.0927 -2.76214 1.40667e-09 7.62007e-10 1.68009e-09 2.45861e-09 1.33358e-09 2.87437e-09 1.40666e-09 7.62005e-10 1.6801e-09 -7.73091 5.47488 -0.417314 1.40667e-09 7.62005e-10 1.6801e-09 -2.90554 0.965183 -0.102902 1.40666e-09 7.62006e-10 1.6801e-09 -10.2786 0.731801 -0.0259123 1.40667e-09 7.62009e-10 1.68009e-09 -2.22167 -0.733487 0.20892 -2.03217e-16 0.0 -3.88251e-19 2.05609 -5.80803 20.128 0.0207613 -0.879976 0.222136 -2.99427 -2.76302 -17.1999 2.03217e-16 0.0 3.88251e-19 -0.443114 -8.91927 -36.1781 0.0204196 13.154 0.022231 11.9156 -16.6353 44.203
3.38918 82.117 49.8456 -8.67 -0.725 9.4221 4.95644 -9.84129 2.25146 -5.33979 -8.89182 -0.128113 -3.63932 10.7669 -6.00754 13.4448 -5.85146 -10.7874 -0.0 0.0 0.0 -0.0 0.0 0.0 -1.86278e-13 2.49662e-13 -4.14466e-14 85.6707 -8.22509 -12.6258 -12.5204 -5.8204 22.6219 -2.44308 39.8419 6.73449 1.84802e-09 -1.78065e-09 1.38298e-09 3.23186e-09 -3.08295e-09 2.32708e-09 1.84803e-09 -1.78064e-09 1.38296e-09 7.73091 5.47488 0.417314 1.84801e-09 -1.78065e-09 1.38299e-09 2.90554 0.965183 0.102902 1.84803e-09 -1.78065e-09 1.38298e-09 10.2786 0.731801 0.0259123 1.84802e-09 -1.78065e-09 1.38298e-09 2.22167 -0.733487 -0.20892 -1.86356e-13 2.49685e-13 -4.18939e-14 -81.5801 -10.6767 15.5682 13.1686 -6.30275 -23.8959 0.709976 23.2137 -3.45563 1.44061e-09 8.90997e-10 2.17459e-09 2.52602e-09 1.56169e-09 3.72504e-09 1.44061e-09 8.90994e-10 2.17459e-09 -7.73091 5.47488 -0.417314 1.44061e-09 8.90995e-10 2.17459e-09 -2.90554 0.965183 -0.102902 1.4406e-09 8.90995e-10 2.17459e-09 -10.2786 0.731801 -0.0259123 1.44062e-09 8.90999e-10 2.17459e-09 -2.22167 -0.733487 0.20892 -2.03217e-16 0.0 -3.88251e-19 3.40008 -6.54396 24.5765 0.0250617 -0.629085 0.285353 -4.11572 -4.14802 -21.0843 2.03217e-16 0.0 3.88251e-19 0.481609 -7.99822 -44.1612 0.0318966 12.82 0.111977 16.9113 -16.461 54.23
3.42192 82.1094 49.8709 -8.3794 -0.6472 9.6766 5.28327 -10.9617 2.25932 -5.50637 -9.35059 -0.147536 -3.86755 11.5008 -6.42827 14.4132 -6.23547 -11.5105 -0.0 0.0 0.0 -0.0 0.0 0.0 -1.79858e-13 2.92662e-13 -2.26389e-14 91.4824 -8.8386 -13.4753 -13.1382 -6.09073 24.0461 -3.06238 42.4477 7.47951 2.05023e-09 -1.73635e-09 8.72825e-10 3.56485e-09 -2.9944e-09 1.43968e-09 2.05024e-09 -1.73634e-09 8.72802e-10 7.73091 5.47488 0.417314 2.05022e-09 -1.73635e-09 8.72827e-10 2.90554 0.965183 0.102902 2.05024e-09 -1.73635e-09 8.7282e-10 10.2786 0.731801 0.0259123 2.05023e-09 -1.73635e-09 8.72827e-10 2.22167 -0.733487 -0.20892 -1.79961e-13 2.92683e-13 -2.30808e-14 -87.0914 -11.3975 16.7576 13.8809 -6.64355 -25.5636 0.867839 24.7342 -3.72758 1.22883e-09 8.57436e-10 2.67966e-09 2.16949e-09 1.5094e-09 4.60106e-09 1.22883e-09 8.57434e-10 2.67967e-09 -7.73091 5.47488 -0.417314 1.22883e-09 8.57434e-10 2.67967e-09 -2.90554 0.965183 -0.102902 1.22882e-09 8.57435e-10 2.67967e-09 -10.2786 0.731801 -0.0259123 1.22883e-09 8.57439e-10 2.67966e-09 -2.22167 -0.733487 0.20892 -2.03217e-16 0.0 -3.88251e-19 3.75551 -6.94824 26.3496 0.0256341 -0.557015 0.310478 -4.65199 -4.73894 -22.7417 2.03217e-16 0.0 3.88251e-19 0.652428 -7.77377 -47.3646 0.0380868 12.7325 0.147808 18.947 -16.0059 58.0642
3.47497 82.1039 49.8942 -7.9139 -0.3994 10.1398 4.67692 -11.5123 2.00014 -5.29259 -9.03372 -0.18437 -3.93648 11.3968 -6.35243 14.4734 -6.17477 -11.3605 -0.0 0.0 0.0 -0.0 0.0 0.0 -1.42224e-13 3.2866e-13 1.01567e-14 90.7198 -8.87643 -13.2898 -12.9275 -5.95845 23.5995 -2.9438 41.9112 7.32764 2.22488e-09 -1.47786e-09 -2.26835e-11 3.83835e-09 -2.5296e-09 -1.0952e-10 2.22489e-09 -1.47786e-09 -2.2702e-11 7.73091 5.47488 0.417314 2.22487e-09 -1.47786e-09 -2.26835e-11 2.90554 0.965183 0.102902 2.22489e-09 -1.47786e-09 -2.26872e-11 10.2786 0.731801 0.0259123 2.22487e-09 -1.47786e-09 -2.26787e-11 2.22167 -0.733487 -0.20892 -1.42376e-13 3.28675e-13 9.72802e-15 -86.4765 -11.3691 16.7088 13.7778 -6.58745 -25.3269 0.837248 24.4015 -3.66875 8.4226e-10 7.08627e-10 3.1883e-09 1.51135e-09 1.25826e-09 5.48827e-09 8.42258e-10 7.08627e-10 3.18832e-09 -7.73091 5.47488 -0.417314 8.42261e-10 7.08625e-10 3.1883e-09 -2.90554 0.965183 -0.102902 8.42252e-10 7.08626e-10 3.18831e-09 -10.2786 0.731801 -0.0259123 8.42265e-10 7.0863e-10 3.1883e-09 -2.22167 -0.733487 0.20892 -2.03217e-16 0.0 -3.88251e-19 3.34126 -7.16574 26.2036 0.0238338 -0.612419 0.308404 -4.6732 -4.80799 -22.7949 2.03217e-16 0.0 3.88251e-19 0.221509 -8.13389 -47.1756 0.0399548 12.8209 0.145249 18.7404 -16.0948 57.6186
3.50149 82.101 49.9071 -7.6651 -0.3038 10.3691 3.76456 -11.7549 1.66075 -4.9541 -8.4416 -0.225086 -3.92282 10.9633 -6.0822 14.1483 -5.94223 -10.8714 -0.0 0.0 0.0 -0.0 0.0 0.0 -9.37984e-14 3.52196e-13 4.02096e-14 87.3517 -8.66511 -12.6963 -12.3962 -5.67353 22.4416 -2.54678 40.1398 6.83357 2.33386e-09 -1.1406e-09 -9.74856e-10 3.99678e-09 -1.92806e-09 -1.7537e-09 2.33387e-09 -1.1406e-09 -9.74869e-10 7.73091 5.47488 0.417314 2.33386e-09 -1.1406e-09 -9.74858e-10 2.90554 0.965183 0.102902 2.33387e-09 -1.1406e-09 -9.74857e-10 10.2786 0.731801 0.0259123 2.33386e-09 -1.1406e-09 -9.74848e-10 2.22167 -0.733487 -0.20892 -9.39996e-14 3.52205e-13 3.97973e-14 -83.4109 -11.0349 16.1571 13.3474 -6.37169 -24.3289 0.734361 23.334 -3.48027 4.1056e-10 5.42582e-10 3.56432e-09 7.72816e-10 9.75939e-10 6.1478e-09 4.10558e-10 5.42583e-10 3.56434e-09 -7.73091 5.47488 -0.417314 4.10561e-10 5.4258e-10 3.56432e-09 -2.90554 0.965183 -0.102902 4.10551e-10 5.42581e-10 3.56433e-09 -10.2786 0.731801 -0.0259123 4.10564e-10 5.42583e-10 3.56432e-09 -2.22167 -0.733487 0.20892 -2.03217e-16 0.0 -3.88251e-19 2.65906 -7.28081 25.275 0.0215063 -0.710271 0.295754 -4.47123 -4.65882 -22.1602 2.03217e-16 0.0 3.88251e-19 -0.373672 -8.70484 -45.613 0.03982 12.969 0.127416 17.6392 -16.3978 55.4733
